<?xml version="1.0" encoding="utf-8"?>
<!-- Generator: Adobe Illustrator 16.0.0, SVG Export Plug-In . SVG Version: 6.00 Build 0)  -->
<!DOCTYPE svg PUBLIC "-//W3C//DTD SVG 1.1//EN" "http://www.w3.org/Graphics/SVG/1.1/DTD/svg11.dtd">
<svg version="1.1" id="Layer_1" xmlns="http://www.w3.org/2000/svg" xmlns:xlink="http://www.w3.org/1999/xlink" x="0px" y="0px"
	 width="841.89px" height="595.28px" viewBox="0 0 841.89 595.28" enable-background="new 0 0 841.89 595.28" xml:space="preserve">
<path fill="#FFFFFF" d="M666.931,391.141c0,81.637-66.798,148.438-148.439,148.438H323.395
	c-81.642,0-148.437-66.801-148.437-148.438V196.042c0-81.642,66.795-148.438,148.437-148.438h195.096
	c81.642,0,148.439,66.796,148.439,148.438V391.141z M419.819,134.453c-72.734,0-123.801,63.449-123.801,124.569
	s47.199,99.04,61.902,109.096c14.702,10.057,14.7,23.985,14.7,23.985v27.855h47.199V134.453z M476.044,435.731
	c0-4.915-3.985-8.896-8.9-8.896h-95.941c-4.915,0-8.9,3.98-8.9,8.896l0,0c0,4.915,3.985,8.901,8.9,8.901h95.941
	C472.059,444.633,476.044,440.646,476.044,435.731L476.044,435.731z M476.044,459.73c0-4.915-3.985-8.9-8.9-8.9h-95.941
	c-4.915,0-8.9,3.985-8.9,8.9l0,0c0,4.915,3.985,8.896,8.9,8.896h95.941C472.059,468.627,476.044,464.646,476.044,459.73
	L476.044,459.73z M419.173,496.472c34.428,0,39.074-17.797,39.074-17.797h-80.469C377.778,478.675,384.745,496.472,419.173,496.472z
	 M507.454,277.171c1.713,0,3.91-0.894,5.141-2.125l18.113-18.138c1.57,1.159,3.528,1.836,5.627,1.836
	c5.265,0,9.539-4.25,9.539-9.515c0-5.265-4.274-9.54-9.539-9.54c-5.264,0-9.514,4.275-9.514,9.54c0,2.221,0.747,4.25,2.027,5.867
	l-18.112,18.113c-0.726,0.7-2.295,1.352-3.282,1.352h-22.172c-0.555-4.081-3.695-7.341-7.753-8.042l8.887-8.886
	c1.209-1.208,2.128-3.431,2.128-5.146v-23.98c0-0.652,0.528-1.159,1.157-1.159h40.837c2.08,0,3.792-1.691,3.792-3.792v-19.102
	c0-2.078-1.712-3.768-3.792-3.768h-41.489l12.415-12.414c1.665,1.401,3.815,2.247,6.157,2.247c5.268,0,9.517-4.251,9.517-9.515
	c0-5.265-4.249-9.516-9.517-9.516c-5.266,0-9.517,4.251-9.517,9.516c0,1.955,0.604,3.791,1.618,5.313v0.024l-14.367,14.345h-15.118
	c-0.629,0-1.16-0.532-1.16-1.184v-36.201c4.637-0.629,8.212-4.613,8.212-9.443c0-5.241-4.25-9.515-9.516-9.515
	c-5.267,0-9.517,4.274-9.517,9.515c0,4.83,3.576,8.814,8.212,9.443v36.201c0,2.101,1.69,3.792,3.769,3.792h60.301
	c0.629,0,1.16,0.531,1.16,1.159v19.102c0,0.652-0.531,1.159-1.16,1.159h-40.837c-2.076,0-3.766,1.714-3.766,3.792v10.722
	l-12.755-12.775c1.018-1.498,1.595-3.309,1.595-5.241c0-5.266-4.273-9.541-9.538-9.541c-5.263,0-9.539,4.275-9.539,9.541
	c0,5.264,4.276,9.515,9.539,9.515c2.369,0,4.54-0.869,6.208-2.294l14.49,14.49v9.563c0,1.016-0.653,2.585-1.377,3.309l-10.82,10.796
	c-3.816,0.844-6.786,4.033-7.316,7.969h-7.488c-1.691-4.685-5.965-8.09-11.11-8.597v-2.101c0-1.352,0.026-3.575,0.026-4.926
	l0.168-11.641c0.025-1.714-0.869-3.937-2.076-5.168l-7.945-7.921c-0.701-0.724-1.352-2.294-1.352-3.309v-77.136
	c4.636-0.652,8.209-4.613,8.209-9.418c0-5.265-4.274-9.54-9.539-9.54c-5.24,0-9.514,4.275-9.514,9.54
	c0,4.83,3.574,8.791,8.211,9.418v77.136c0,1.715,0.916,3.937,2.123,5.144l7.947,7.945c0.699,0.701,1.352,2.271,1.326,3.286
	l-0.167,11.616c-0.024,1.376-0.051,3.598-0.051,4.975v2.101c-6.712,0.652-11.929,6.303-11.929,13.186
	c0,6.883,5.217,12.534,11.929,13.186v28.547c-6.591,0.773-11.688,6.352-11.688,13.136c0,7.345,5.918,13.26,13.261,13.26
	c5.287,0,9.83-3.066,11.954-7.56l10.265,8.597c-1.644,1.694-2.658,4.033-2.658,6.595c0,2.414,0.896,4.59,2.391,6.255l-13.376,9.49
	c-1.427-3.5-4.83-5.938-8.815-5.938c-5.265,0-9.541,4.249-9.541,9.513c0,4.807,3.573,8.77,8.209,9.42v17.051
	c-4.803,0.629-8.499,4.756-8.499,9.732c0,5.434,4.396,9.851,9.806,9.851c5.435,0,9.854-4.417,9.854-9.851
	c0-4.953-3.72-9.081-8.527-9.732V383.65c4.64-0.627,8.212-4.589,8.212-9.42c0-0.29,0-0.556-0.048-0.82l14.755-10.457h0.023
	c1.478,0.943,3.213,1.472,5.074,1.472c5.266,0,9.539-4.273,9.539-9.514c0-5.264-4.273-9.54-9.539-9.54
	c-1.738,0-3.356,0.46-4.757,1.28l-11.425-9.563c0.24-0.99,0.362-2.005,0.362-3.068c0-6.952-5.362-12.654-12.197-13.184v-16.712
	h47.169c0.577,4.2,3.91,7.533,8.137,8.113v3.913c-6.713,0.653-11.953,6.278-11.953,13.162c0,7.34,5.939,13.259,13.259,13.259
	c7.316,0,13.257-5.919,13.257-13.259c0-6.884-5.24-12.509-11.954-13.162v-3.913c4.636-0.627,8.212-4.613,8.212-9.42
	c0-2.729-1.16-5.217-3.019-6.929l14.393-14.394c1.498,2.028,3.768,3.429,6.375,3.791v9.782c-0.144-0.024-0.313-0.024-0.457-0.024
	c-4.276,0-7.755,3.479-7.755,7.775c0,4.276,3.479,7.755,7.755,7.755c4.296,0,7.749-3.479,7.749-7.755
	c0-3.188-1.906-5.938-4.66-7.123v-10.409c4.637-0.652,8.213-4.611,8.213-9.418c0-5.265-4.273-9.516-9.541-9.516
	c-5.24,0-9.516,4.25-9.516,9.516c0,1.111,0.193,2.198,0.557,3.188l-15.287,15.287c-1.302-0.7-2.753-1.063-4.321-1.063
	c-1.934,0-3.745,0.581-5.243,1.546l-14.779-14.78c0.435-0.894,0.75-1.859,0.87-2.874H507.454z M497.236,296.588
	c-1.184,1.353-1.979,3.041-2.244,4.902h-47.169v-9.153c6.718-0.652,11.957-6.326,11.957-13.186c0-0.676-0.049-1.328-0.169-1.98
	h6.811c0.628,4.637,4.613,8.211,9.418,8.211c2.801,0,5.337-1.208,7.052-3.139L497.236,296.588z M401.891,113.999
	c3.563,0,6.443-2.885,6.443-6.437v-28.66c0-3.558-2.881-6.438-6.443-6.438c-3.552,0-6.438,2.883-6.438,6.438v28.66
	C395.452,111.118,398.339,113.999,401.891,113.999z M319.546,134.196c1.256,1.764,3.233,2.709,5.262,2.709
	c1.288,0,2.584-0.385,3.716-1.189c2.901-2.059,3.581-6.083,1.519-8.979l-16.599-23.36c-2.056-2.896-6.075-3.578-8.977-1.52
	c-2.896,2.058-3.58,6.08-1.523,8.983L319.546,134.196z M281.663,184.639l-27.062-9.434c-3.362-1.166-7.028,0.606-8.202,3.962
	c-1.17,3.36,0.608,7.031,3.962,8.205l27.061,9.427c0.702,0.245,1.415,0.362,2.118,0.362c2.665,0,5.156-1.667,6.085-4.325
	C286.794,189.484,285.026,185.811,281.663,184.639z"/>
</svg>
