<?xml version="1.0" encoding="utf-8"?>
<!-- Generator: Adobe Illustrator 16.0.0, SVG Export Plug-In . SVG Version: 6.00 Build 0)  -->
<!DOCTYPE svg PUBLIC "-//W3C//DTD SVG 1.1//EN" "http://www.w3.org/Graphics/SVG/1.1/DTD/svg11.dtd">
<svg version="1.1" id="Layer_1" xmlns="http://www.w3.org/2000/svg" xmlns:xlink="http://www.w3.org/1999/xlink" x="0px" y="0px"
	 width="841.89px" height="595.28px" viewBox="0 0 841.89 595.28" enable-background="new 0 0 841.89 595.28" xml:space="preserve">
<g>
	<path fill="#2B2B2B" d="M427.31,352.734c-3.099,3.476-6.832,6.459-11.199,8.946c-4.367,2.489-9.087,3.733-14.159,3.733
		c-4.697,0-9.086-0.846-13.172-2.536s-7.678-4.037-10.777-7.044c-3.1-3.005-5.543-6.573-7.326-10.707
		c-1.785-4.132-2.677-8.64-2.677-13.524c0-4.695,0.868-9.133,2.606-13.313c1.737-4.178,4.132-7.818,7.186-10.918
		c3.051-3.1,6.667-5.541,10.848-7.326c4.178-1.782,8.71-2.676,13.595-2.676c4.508,0,8.805,0.916,12.891,2.746
		c4.085,1.832,7.678,4.297,10.777,7.396s5.564,6.717,7.396,10.848c1.832,4.135,2.748,8.548,2.748,13.243v29.726
		c0,1.222-0.423,2.254-1.269,3.1c-0.845,0.845-1.88,1.268-3.1,1.268c-1.222,0-2.254-0.423-3.099-1.268
		c-0.846-0.846-1.269-1.878-1.269-3.1V352.734z M427.31,331.603c0-3.474-0.658-6.762-1.972-9.861
		c-1.316-3.1-3.124-5.798-5.424-8.101c-2.303-2.301-5.002-4.107-8.101-5.424c-3.1-1.314-6.389-1.973-9.862-1.973
		c-3.476,0-6.74,0.658-9.791,1.973c-3.053,1.316-5.729,3.123-8.03,5.424c-2.302,2.303-4.109,5.001-5.424,8.101
		c-1.316,3.1-1.972,6.388-1.972,9.861c0,3.476,0.655,6.74,1.972,9.791c1.314,3.054,3.122,5.73,5.424,8.03
		c2.301,2.303,4.978,4.109,8.03,5.424c3.051,1.316,6.315,1.973,9.791,1.973c3.382,0,6.573-0.634,9.58-1.902
		c3.005-1.268,5.657-3.028,7.96-5.283c2.3-2.254,4.132-4.906,5.494-7.959C426.346,338.625,427.121,335.266,427.31,331.603z"/>
	<path fill="#2B2B2B" d="M445.765,279.899c0-1.22,0.423-2.254,1.269-3.099c0.845-0.846,1.877-1.269,3.099-1.269
		c1.22,0,2.255,0.423,3.1,1.269c0.846,0.845,1.268,1.879,1.268,3.099v81.288c0,1.222-0.422,2.254-1.268,3.1
		c-0.845,0.845-1.88,1.268-3.1,1.268c-1.222,0-2.254-0.423-3.099-1.268c-0.846-0.846-1.269-1.878-1.269-3.1V279.899z"/>
	<path fill="#2B2B2B" d="M470.561,335.688c0.469,3.007,1.455,5.8,2.958,8.382c1.501,2.584,3.357,4.814,5.564,6.692
		c2.206,1.88,4.72,3.358,7.537,4.438c2.818,1.081,5.776,1.62,8.876,1.62c3.474,0,6.714-0.634,9.721-1.902
		c3.005-1.268,5.682-3.028,8.03-5.283c0.845-0.845,1.878-1.268,3.1-1.268c1.219,0,2.254,0.423,3.099,1.268
		c0.846,0.846,1.269,1.88,1.269,3.1c0,1.222-0.423,2.254-1.269,3.1c-3.099,3.476-6.599,5.941-10.495,7.396
		c-3.898,1.457-8.383,2.184-13.454,2.184c-4.697,0-9.087-0.846-13.173-2.536c-4.085-1.69-7.678-4.037-10.777-7.044
		c-3.099-3.005-5.542-6.573-7.325-10.707c-1.785-4.132-2.677-8.64-2.677-13.524c0-4.695,0.867-9.087,2.606-13.173
		c1.736-4.085,4.132-7.653,7.185-10.706c3.051-3.052,6.668-5.495,10.848-7.326c4.178-1.831,8.711-2.839,13.595-3.028
		c4.414,0,8.664,0.894,12.75,2.676c4.086,1.785,7.678,4.227,10.777,7.326s5.587,6.691,7.467,10.777
		c1.878,4.086,2.817,8.478,2.817,13.173c0,1.408-0.471,2.489-1.409,3.24c-0.939,0.752-1.926,1.127-2.958,1.127H470.561z
		 M520.432,326.953c-0.563-2.909-1.598-5.635-3.1-8.17c-1.503-2.537-3.358-4.721-5.564-6.552c-2.208-1.831-4.697-3.286-7.467-4.367
		c-2.771-1.079-5.705-1.62-8.805-1.62s-6.036,0.541-8.805,1.62c-2.771,1.081-5.262,2.536-7.467,4.367
		c-2.208,1.831-4.04,4.015-5.494,6.552c-1.458,2.535-2.466,5.261-3.029,8.17H520.432z"/>
	<path fill="#2B2B2B" d="M540.013,301.454c0-1.22,0.423-2.254,1.268-3.099c0.846-0.846,1.878-1.269,3.1-1.269
		c1.22,0,2.254,0.423,3.1,1.269c0.845,0.845,1.268,1.879,1.268,3.099v6.903c3.005-3.287,6.621-5.987,10.848-8.101
		s8.827-3.17,13.807-3.17c1.501,0,2.698,0.423,3.592,1.269c0.892,0.845,1.339,1.879,1.339,3.099c0,1.222-0.447,2.255-1.339,3.1
		c-0.894,0.845-2.091,1.269-3.592,1.269c-3.381,0-6.529,0.657-9.439,1.972c-2.912,1.316-5.472,3.099-7.678,5.354
		c-2.208,2.254-3.993,4.839-5.354,7.748c-1.362,2.912-2.091,5.966-2.184,9.157v31.135c0,1.222-0.423,2.254-1.268,3.1
		c-0.846,0.845-1.88,1.268-3.1,1.268c-1.222,0-2.254-0.423-3.1-1.268c-0.845-0.846-1.268-1.878-1.268-3.1V301.454z"/>
	<path fill="#2B2B2B" d="M595.521,279.899c0-1.22,0.422-2.254,1.268-3.099c0.846-0.846,1.878-1.269,3.1-1.269
		c1.219,0,2.254,0.423,3.099,1.269c0.846,0.845,1.269,1.879,1.269,3.099v17.188h9.395c1.233,0,2.276,0.423,3.131,1.269
		c0.854,0.845,1.28,1.879,1.28,3.099c0,1.222-0.427,2.255-1.28,3.1c-0.854,0.845-1.897,1.269-3.131,1.269h-9.395v55.365
		c0,1.222-0.416,2.254-1.248,3.1c-0.832,0.845-1.847,1.268-3.049,1.268s-2.219-0.423-3.051-1.268
		c-0.832-0.846-1.246-1.878-1.246-3.1v-55.365h-9.396c-1.232,0-2.275-0.424-3.13-1.269c-0.854-0.845-1.281-1.878-1.281-3.1
		c0-1.22,0.423-2.254,1.269-3.099c0.845-0.846,1.877-1.269,3.099-1.269h9.299V279.899z"/>
	<path fill="#2B2B2B" d="M675.543,352.734c-3.1,3.476-6.834,6.459-11.201,8.946c-4.367,2.489-9.086,3.733-14.158,3.733
		c-4.697,0-9.087-0.846-13.173-2.536c-4.085-1.69-7.678-4.037-10.777-7.044c-3.099-3.005-5.542-6.573-7.325-10.707
		c-1.785-4.132-2.677-8.64-2.677-13.524c0-4.695,0.867-9.133,2.606-13.313c1.736-4.178,4.132-7.818,7.185-10.918
		c3.051-3.1,6.668-5.541,10.848-7.326c4.178-1.782,8.711-2.676,13.595-2.676c4.51,0,8.807,0.916,12.891,2.746
		c4.086,1.832,7.68,4.297,10.777,7.396c3.1,3.1,5.566,6.717,7.396,10.848c1.832,4.135,2.748,8.548,2.748,13.243v29.726
		c0,1.222-0.424,2.254-1.268,3.1c-0.846,0.845-1.881,1.268-3.1,1.268c-1.223,0-2.254-0.423-3.1-1.268
		c-0.846-0.846-1.268-1.878-1.268-3.1V352.734z M675.543,331.603c0-3.474-0.658-6.762-1.973-9.861
		c-1.316-3.1-3.123-5.798-5.424-8.101c-2.303-2.301-5.002-4.107-8.102-5.424c-3.1-1.314-6.387-1.973-9.861-1.973
		c-3.476,0-6.74,0.658-9.791,1.973c-3.054,1.316-5.73,3.123-8.03,5.424c-2.303,2.303-4.11,5.001-5.424,8.101
		c-1.316,3.1-1.973,6.388-1.973,9.861c0,3.476,0.656,6.74,1.973,9.791c1.313,3.054,3.121,5.73,5.424,8.03
		c2.3,2.303,4.977,4.109,8.03,5.424c3.051,1.316,6.315,1.973,9.791,1.973c3.381,0,6.574-0.634,9.58-1.902
		c3.004-1.268,5.658-3.028,7.959-5.283c2.301-2.254,4.133-4.906,5.496-7.959C674.578,338.625,675.354,335.266,675.543,331.603z"/>
</g>
<g>
	<linearGradient id="SVGID_1_" gradientUnits="userSpaceOnUse" x1="247.4189" y1="161.9819" x2="247.4189" y2="365.6958">
		<stop  offset="0" style="stop-color:#F37548"/>
		<stop  offset="0.457" style="stop-color:#EF3633"/>
		<stop  offset="1" style="stop-color:#A91E23"/>
	</linearGradient>
	<path fill="url(#SVGID_1_)" d="M349.275,304.231c0,33.805-27.659,61.464-61.464,61.464h-80.784
		c-33.806,0-61.464-27.659-61.464-61.464v-80.785c0-33.806,27.659-61.464,61.464-61.464h80.784
		c33.806,0,61.464,27.659,61.464,61.464V304.231z"/>
	<g>
		<g>
			<g>
				<path fill="#FFFFFF" d="M246.954,316.165H227.41v-11.534c0,0,0.001-5.769-6.087-9.932c-6.087-4.165-25.632-19.865-25.632-45.174
					c0-25.309,21.146-51.581,51.263-51.581V316.165z"/>
			</g>
			<g>
				<g>
					<path fill="#FFFFFF" d="M270.234,322.696c0,2.034-1.65,3.685-3.685,3.685h-39.727c-2.036,0-3.686-1.65-3.686-3.685l0,0
						c0-2.035,1.65-3.685,3.686-3.685h39.727C268.584,319.012,270.234,320.661,270.234,322.696L270.234,322.696z"/>
				</g>
				<g>
					<path fill="#FFFFFF" d="M270.234,332.633c0,2.035-1.65,3.685-3.685,3.685h-39.727c-2.036,0-3.686-1.649-3.686-3.685l0,0
						c0-2.035,1.65-3.686,3.686-3.686h39.727C268.584,328.947,270.234,330.598,270.234,332.633L270.234,332.633z"/>
				</g>
				<g>
					<path fill="#FFFFFF" d="M229.546,340.478h33.319c0,0-1.923,7.368-16.179,7.368S229.546,340.478,229.546,340.478z"/>
				</g>
			</g>
			<g>
				<g>
					<circle fill="#FFFFFF" cx="270.155" cy="289.226" r="3.944"/>
				</g>
				<g>
					<circle fill="#FFFFFF" cx="270.155" cy="256.502" r="3.944"/>
				</g>
				<g>
					<circle fill="#FFFFFF" cx="265.76" cy="233.87" r="3.945"/>
				</g>
				<g>
					<circle fill="#FFFFFF" cx="283.311" cy="217.223" r="3.944"/>
				</g>
				<g>
					<circle fill="#FFFFFF" cx="266.81" cy="205.983" r="3.944"/>
				</g>
				<g>
					<circle fill="#FFFFFF" cx="253.374" cy="202.039" r="3.943"/>
				</g>
				<g>
					<circle fill="#FFFFFF" cx="281.987" cy="267.657" r="3.944"/>
				</g>
				<g>
					<circle fill="#FFFFFF" cx="293.823" cy="256.5" r="3.944"/>
				</g>
				<g>
					<path fill="#FFFFFF" d="M299.145,245.467c0,2.178-1.767,3.946-3.945,3.946c-2.175,0-3.943-1.768-3.943-3.946
						c0-2.177,1.768-3.944,3.943-3.944C297.378,241.522,299.145,243.29,299.145,245.467z"/>
				</g>
				<g>
					<circle fill="#FFFFFF" cx="258.006" cy="297.23" r="3.944"/>
				</g>
				<g>
					<circle fill="#FFFFFF" cx="258.007" cy="312.224" r="4.072"/>
				</g>
				<g>
					<circle fill="#FFFFFF" cx="293.091" cy="267.657" r="3.212"/>
				</g>
				<g>
					<circle fill="#FFFFFF" cx="258.106" cy="280.585" r="5.489"/>
				</g>
				<g>
					<circle fill="#FFFFFF" cx="281.987" cy="278.634" r="5.489"/>
				</g>
				<g>
					<circle fill="#FFFFFF" cx="258.005" cy="257.859" r="5.49"/>
				</g>
			</g>
			<g>
				<g>
					<g>
						<rect x="257.464" y="301.174" fill="#FFFFFF" width="1.084" height="6.977"/>
					</g>
				</g>
				<g>
					<g>
						
							<rect x="264.401" y="291.038" transform="matrix(0.6211 0.7837 -0.7837 0.6211 331.467 -95.9245)" fill="#FFFFFF" width="1.084" height="7.64"/>
					</g>
				</g>
				<g>
					<g>
						
							<rect x="262.674" y="283.709" transform="matrix(0.8087 0.5882 -0.5882 0.8087 217.9996 -101.8437)" fill="#FFFFFF" width="5.819" height="1.084"/>
					</g>
				</g>
				<g>
					<g>
						<rect x="257.463" y="263.349" fill="#FFFFFF" width="1.084" height="12.074"/>
					</g>
				</g>
				<g>
					<g>
						<rect x="258.106" y="267.115" fill="#FFFFFF" width="19.937" height="1.084"/>
					</g>
				</g>
				<g>
					<g>
						<rect x="281.446" y="271.602" fill="#FFFFFF" width="1.084" height="1.545"/>
					</g>
				</g>
				<g>
					<g>
						
							<rect x="286.702" y="257.241" transform="matrix(0.7073 0.7069 -0.7069 0.7073 268.888 -126.5262)" fill="#FFFFFF" width="1.084" height="8.438"/>
					</g>
				</g>
				<g>
					<g>
						<rect x="293.281" y="260.445" fill="#FFFFFF" width="1.084" height="3.998"/>
					</g>
				</g>
				<g>
					<g>
						<rect x="263.318" y="255.96" fill="#FFFFFF" width="2.893" height="1.084"/>
					</g>
				</g>
				<g>
					<g>
						
							<rect x="272.171" y="261.182" transform="matrix(0.7071 0.7071 -0.7071 0.7071 266.0287 -118.8013)" fill="#FFFFFF" width="8.498" height="1.084"/>
					</g>
				</g>
				<g>
					<g>
						<path fill="#FFFFFF" d="M258.548,252.556h-1.084v-1.027c0-0.566,0.007-1.491,0.016-2.057l0.069-4.816
							c0.007-0.416-0.255-1.063-0.55-1.357l-3.284-3.285c-0.504-0.503-0.884-1.419-0.884-2.132v-31.901h1.084v31.901
							c0,0.418,0.27,1.069,0.566,1.366l3.284,3.284c0.505,0.505,0.879,1.426,0.868,2.14l-0.069,4.815
							c-0.008,0.561-0.016,1.479-0.016,2.042V252.556z"/>
					</g>
				</g>
				<g>
					<g>
						<path fill="#FFFFFF" d="M270.538,252.939l-0.767-0.767l3.988-3.987c0.296-0.296,0.566-0.947,0.566-1.366v-9.93
							c0-0.864,0.702-1.567,1.565-1.567h16.908c0.267,0,0.483-0.216,0.483-0.482v-7.908c0-0.266-0.216-0.482-0.483-0.482h-24.965
							c-0.864,0-1.567-0.703-1.567-1.566v-14.959h1.084v14.959c0,0.266,0.216,0.482,0.483,0.482h24.965
							c0.864,0,1.567,0.703,1.567,1.566v7.908c0,0.864-0.703,1.567-1.567,1.567h-16.908c-0.265,0-0.481,0.216-0.481,0.482v9.93
							c0,0.711-0.379,1.628-0.883,2.132L270.538,252.939z"/>
					</g>
				</g>
				<g>
					<g>
						
							<rect x="276.726" y="218.777" transform="matrix(0.7071 0.7071 -0.7071 0.7071 238.863 -130.7565)" fill="#FFFFFF" width="1.084" height="8.355"/>
					</g>
				</g>
				<g>
					<g>
						
							<rect x="267.306" y="238.956" transform="matrix(0.7072 0.707 -0.707 0.7072 248.8976 -121.9956)" fill="#FFFFFF" width="8.857" height="1.084"/>
					</g>
				</g>
				<g>
					<g>
						<path fill="#FFFFFF" d="M283.236,257.045h-9.138v-1.084h9.138c0.417,0,1.068-0.27,1.365-0.565l7.54-7.541l0.767,0.767
							l-7.54,7.541C284.863,256.665,283.947,257.045,283.236,257.045z"/>
					</g>
				</g>
			</g>
		</g>
		<g>
			<g>
				<path fill="#FFFFFF" d="M239.53,189.475c1.475,0,2.667-1.195,2.667-2.666v-11.867c0-1.473-1.193-2.666-2.667-2.666
					c-1.471,0-2.667,1.194-2.667,2.666v11.867C236.864,188.282,238.06,189.475,239.53,189.475z"/>
			</g>
			<g>
				<path fill="#FFFFFF" d="M205.433,197.838c0.521,0.73,1.339,1.122,2.179,1.122c0.532,0,1.07-0.159,1.539-0.492
					c1.201-0.853,1.482-2.519,0.628-3.718l-6.873-9.673c-0.852-1.199-2.516-1.481-3.716-0.629c-1.2,0.852-1.483,2.518-0.631,3.72
					L205.433,197.838z"/>
			</g>
			<g>
				<path fill="#FFFFFF" d="M189.747,218.725l-11.205-3.906c-1.394-0.483-2.911,0.251-3.396,1.641
					c-0.484,1.391,0.251,2.911,1.641,3.397l11.204,3.904c0.291,0.101,0.586,0.15,0.878,0.15c1.103,0,2.135-0.69,2.519-1.791
					C191.871,220.731,191.14,219.21,189.747,218.725z"/>
			</g>
		</g>
	</g>
</g>
<g>
	<g>
		<path fill="#2B2B2B" d="M162.909,412.001c0-1.401-0.574-2.531-1.724-3.388c-1.149-0.857-3.108-1.741-5.876-2.648
			c-2.758-0.842-4.791-1.733-6.096-2.675c-1.306-0.94-1.959-2.337-1.959-4.186c0-1.838,0.766-3.327,2.295-4.464
			c1.53-1.139,3.472-1.707,5.827-1.707c2.443,0,4.407,0.627,5.893,1.883c1.485,1.255,2.205,3.01,2.16,5.263l-0.033,0.102h-0.773
			c0-1.827-0.673-3.341-2.018-4.539c-1.345-1.2-3.089-1.801-5.229-1.801c-2.209,0-3.963,0.519-5.263,1.557
			c-1.301,1.035-1.951,2.261-1.951,3.674c0,1.411,0.525,2.559,1.573,3.438c1.048,0.88,3.001,1.741,5.86,2.582
			c2.78,0.874,4.848,1.781,6.204,2.724c1.357,0.941,2.035,2.325,2.035,4.152c0,1.861-0.802,3.353-2.405,4.474
			c-1.603,1.12-3.582,1.681-5.935,1.681c-2.455,0-4.568-0.575-6.339-1.723c-1.771-1.149-2.628-2.957-2.572-5.423l0.034-0.102h0.756
			c0,2.219,0.818,3.831,2.455,4.835c1.637,1.004,3.525,1.504,5.667,1.504c2.141,0,3.912-0.495,5.313-1.487
			S162.909,413.491,162.909,412.001z"/>
		<path fill="#2B2B2B" d="M155.494,419.078c-2.632,0-4.94-0.632-6.859-1.878c-2.06-1.336-3.072-3.438-3.009-6.247l0.083-0.382
			l0.218-0.653h2.403v0.956c0,1.879,0.653,3.194,1.998,4.02c1.477,0.905,3.214,1.363,5.167,1.363c1.929,0,3.53-0.441,4.761-1.313
			c1.142-0.81,1.698-1.772,1.698-2.943c0-1.091-0.438-1.949-1.34-2.621c-1.06-0.792-2.945-1.635-5.602-2.506
			c-2.866-0.873-4.952-1.794-6.357-2.808c-1.563-1.127-2.356-2.795-2.356-4.962c0-2.148,0.902-3.909,2.681-5.232
			c1.692-1.258,3.844-1.895,6.397-1.895c2.664,0,4.854,0.709,6.51,2.109c1.71,1.445,2.551,3.467,2.5,6.011l-0.083,0.385
			l-0.218,0.654h-2.42v-0.956c0-1.556-0.555-2.807-1.698-3.827c-1.173-1.046-2.676-1.556-4.591-1.556
			c-1.976,0-3.546,0.453-4.667,1.348c-1.07,0.853-1.59,1.811-1.59,2.926c0,1.125,0.402,2.009,1.23,2.707
			c0.942,0.789,2.797,1.595,5.515,2.394c2.916,0.917,5.031,1.852,6.48,2.855c1.623,1.128,2.446,2.789,2.446,4.939
			c0,2.183-0.946,3.951-2.813,5.257C160.218,418.453,158.036,419.078,155.494,419.078z"/>
	</g>
	<g>
		<path fill="#2B2B2B" d="M167.112,408.319c0-2.668,0.737-4.849,2.211-6.541c1.474-1.693,3.388-2.539,5.742-2.539
			c2.365,0,4.285,0.846,5.759,2.539c1.474,1.692,2.211,3.873,2.211,6.541v0.705c0,2.679-0.737,4.865-2.211,6.558
			c-1.474,1.692-3.383,2.539-5.725,2.539c-2.366,0-4.289-0.847-5.768-2.539c-1.479-1.692-2.219-3.879-2.219-6.558V408.319z
			 M168.021,409.024c0,2.286,0.638,4.224,1.917,5.811c1.277,1.585,2.999,2.378,5.163,2.378c2.129,0,3.833-0.796,5.111-2.388
			c1.278-1.591,1.917-3.525,1.917-5.801v-0.705c0-2.231-0.645-4.152-1.934-5.759c-1.289-1.61-2.999-2.414-5.128-2.414
			c-2.141,0-3.851,0.804-5.128,2.414c-1.278,1.606-1.917,3.527-1.917,5.759V409.024z"/>
		<path fill="#2B2B2B" d="M175.1,419.078c-2.643,0-4.826-0.965-6.488-2.866c-1.629-1.864-2.455-4.281-2.455-7.188v-0.705
			c0-2.894,0.822-5.306,2.445-7.169c1.657-1.903,3.832-2.868,6.464-2.868c2.644,0,4.824,0.965,6.48,2.867
			c1.624,1.864,2.446,4.276,2.446,7.17v0.705c0,2.905-0.822,5.322-2.446,7.186C179.889,418.112,177.72,419.078,175.1,419.078z
			 M175.065,401.104c-1.85,0-3.283,0.672-4.379,2.051c-1.151,1.449-1.71,3.138-1.71,5.165v0.705c0,2.081,0.558,3.785,1.706,5.21
			c1.096,1.361,2.542,2.022,4.417,2.022c1.84,0,3.269-0.664,4.365-2.03c1.147-1.43,1.706-3.132,1.706-5.202v-0.705
			c0-2.025-0.564-3.714-1.724-5.162C178.339,401.776,176.905,401.104,175.065,401.104z"/>
	</g>
	<g>
		<path fill="#2B2B2B" d="M188.77,417.768v-17.269h-3.162v-0.924h3.162v-2.993c0-1.716,0.417-3.043,1.251-3.986
			c0.836-0.94,2.004-1.411,3.506-1.411c0.37,0,0.737,0.022,1.101,0.067c0.364,0.046,0.714,0.118,1.051,0.219l-0.134,0.875
			c-0.358-0.09-0.675-0.154-0.95-0.193c-0.274-0.039-0.625-0.06-1.05-0.06c-1.21,0-2.158,0.397-2.841,1.194
			c-0.684,0.796-1.026,1.895-1.026,3.295v2.993h4.809v0.924h-4.809v17.269H188.77z"/>
		<path fill="#2B2B2B" d="M190.634,418.725h-2.822v-17.269h-3.161v-2.837h3.161v-2.037c0-1.947,0.503-3.502,1.494-4.619
			c1.021-1.15,2.44-1.734,4.221-1.734c0.407,0,0.817,0.025,1.217,0.074c0.417,0.052,0.824,0.136,1.209,0.252l0.797,0.239
			l-0.42,2.733l-1.018-0.255c-0.323-0.08-0.606-0.139-0.853-0.173c-0.228-0.033-0.537-0.051-0.916-0.051
			c-0.926,0-1.619,0.281-2.117,0.86c-0.527,0.614-0.794,1.514-0.794,2.673v2.037h4.808v2.837h-4.808V418.725z"/>
	</g>
	<g>
		<path fill="#2B2B2B" d="M200.119,394.666v4.909h4.473v0.924h-4.473v12.579c0,1.489,0.252,2.553,0.756,3.186
			s1.171,0.949,2.001,0.949c0.303,0,0.571-0.012,0.807-0.033c0.236-0.022,0.561-0.062,0.976-0.118l0.168,0.823
			c-0.28,0.09-0.572,0.153-0.875,0.187c-0.303,0.034-0.645,0.05-1.025,0.05c-1.222,0-2.15-0.397-2.784-1.193
			c-0.632-0.796-0.949-2.079-0.949-3.85v-12.579h-3.364v-0.924h3.364v-4.909H200.119z"/>
		<path fill="#2B2B2B" d="M202.927,419.078c-1.522,0-2.711-0.523-3.532-1.556c-0.779-0.979-1.158-2.435-1.158-4.444v-11.622h-3.363
			v-2.837h3.363v-4.91h2.838v4.91h4.473v2.837h-4.473v11.622c0,1.57,0.298,2.275,0.548,2.589c0.325,0.407,0.711,0.59,1.253,0.59
			c0.269,0,0.508-0.01,0.716-0.029c0.227-0.021,0.539-0.059,0.938-0.114l0.886-0.119l0.519,2.541l-0.818,0.262
			c-0.339,0.108-0.696,0.185-1.06,0.226C203.723,419.058,203.346,419.078,202.927,419.078z"/>
	</g>
	<g>
		<path fill="#2B2B2B" d="M212.141,412.506l0.942,3.732l0.101,0.018l1.194-3.75l4.086-12.931h0.925l4.069,12.931l1.176,3.75
			l0.101-0.018l0.976-3.732l3.699-12.931h1.06l-5.297,18.192h-0.908l-4.557-13.67l-0.756-2.824h-0.102l-0.791,2.824l-4.488,13.67
			h-0.909l-5.279-18.192h1.042L212.141,412.506z"/>
		<polygon fill="#2B2B2B" points="225.889,418.725 223.574,418.725 218.883,404.651 214.262,418.725 211.944,418.725 
			206.108,398.619 209.145,398.619 213.235,412.937 217.762,398.619 220.089,398.619 224.602,412.961 224.785,412.264 
			228.688,398.619 231.742,398.619 		"/>
	</g>
	<g>
		<path fill="#2B2B2B" d="M246.357,414.406c-0.628,1.097-1.564,1.992-2.808,2.681c-1.244,0.689-2.751,1.034-4.523,1.034
			c-1.692,0-3.021-0.463-3.985-1.387c-0.964-0.925-1.446-2.173-1.446-3.741c0-1.525,0.721-2.803,2.162-3.834
			c1.44-1.031,3.242-1.547,5.405-1.547h5.196v-2.656c0-1.514-0.485-2.692-1.454-3.54c-0.97-0.847-2.335-1.27-4.094-1.27
			c-1.648,0-2.974,0.397-3.977,1.193c-1.002,0.797-1.505,1.822-1.505,3.077l-0.756-0.033l-0.034-0.085
			c-0.067-1.412,0.481-2.608,1.648-3.589c1.166-0.981,2.707-1.471,4.624-1.471c1.95,0,3.514,0.493,4.69,1.479
			c1.177,0.986,1.766,2.41,1.766,4.271v9.112c0,0.639,0.036,1.261,0.109,1.867c0.073,0.605,0.193,1.204,0.362,1.798h-1.009
			c-0.146-0.796-0.244-1.392-0.294-1.791c-0.051-0.397-0.076-0.826-0.076-1.286V414.406z M239.026,417.229
			c1.805,0,3.332-0.396,4.582-1.193c1.25-0.796,2.166-1.934,2.749-3.412v-4.087h-5.145c-1.883,0-3.472,0.435-4.767,1.303
			c-1.294,0.869-1.941,1.942-1.941,3.221c0,1.221,0.411,2.223,1.235,3.001C236.563,416.842,237.659,417.229,239.026,417.229z"/>
		<path fill="#2B2B2B" d="M239.026,419.078c-1.94,0-3.503-0.558-4.647-1.654c-1.155-1.107-1.74-2.599-1.74-4.431
			c0-1.844,0.861-3.396,2.561-4.612c1.598-1.144,3.604-1.726,5.962-1.726h4.239v-1.699c0-1.235-0.368-2.157-1.126-2.819
			c-0.786-0.687-1.952-1.033-3.465-1.033c-1.419,0-2.557,0.332-3.383,0.986c-0.78,0.619-1.142,1.358-1.142,2.327v1.002l-2.373-0.106
			l-0.289-0.721l-0.042-0.246c-0.082-1.719,0.587-3.189,1.988-4.369c1.337-1.123,3.101-1.694,5.24-1.694
			c2.172,0,3.958,0.573,5.305,1.703c1.398,1.172,2.107,2.854,2.107,5.005v9.112c0,0.598,0.035,1.188,0.103,1.753
			c0.067,0.553,0.178,1.107,0.333,1.651l0.344,1.218h-3.071l-0.144-0.785c-0.079-0.429-0.144-0.802-0.195-1.116
			c-0.467,0.409-0.994,0.776-1.578,1.101C242.631,418.689,240.954,419.078,239.026,419.078z M241.212,409.493
			c-1.681,0-3.105,0.384-4.234,1.142c-1.022,0.685-1.518,1.479-1.518,2.426c0,0.955,0.306,1.71,0.937,2.306
			c0.645,0.609,1.505,0.908,2.629,0.908c1.612,0,2.98-0.353,4.068-1.046c1.04-0.661,1.795-1.576,2.306-2.792v-2.943H241.212z"/>
	</g>
	<g>
		<path fill="#2B2B2B" d="M261.137,400.23l-1.177-0.101c-1.626,0-2.945,0.524-3.961,1.572c-1.013,1.048-1.672,2.43-1.975,4.146
			v11.92h-0.908v-18.192h0.74l0.168,3.161v0.621c0.504-1.298,1.255-2.312,2.252-3.033c0.998-0.725,2.226-1.085,3.683-1.085
			c0.257,0,0.496,0.02,0.714,0.058c0.219,0.041,0.407,0.084,0.564,0.127L261.137,400.23z"/>
		<path fill="#2B2B2B" d="M254.982,418.725h-2.821v-20.105h2.603l0.089,1.672c0.268-0.271,0.557-0.52,0.865-0.742
			c1.159-0.84,2.587-1.267,4.244-1.267c0.313,0,0.61,0.025,0.884,0.075c0.255,0.045,0.474,0.095,0.656,0.146l0.789,0.226
			l-0.317,2.532l-2.094-0.179c-1.286,0.003-2.356,0.423-3.191,1.284c-0.858,0.887-1.433,2.087-1.706,3.566V418.725z"/>
	</g>
	<g>
		<path fill="#2B2B2B" d="M270.688,418.121c-2.142,0-3.949-0.829-5.423-2.488s-2.211-3.749-2.211-6.271v-1.076
			c0-2.634,0.732-4.801,2.195-6.498c1.462-1.699,3.304-2.548,5.524-2.548c2.018,0,3.625,0.663,4.825,1.993
			c1.2,1.328,1.799,3.14,1.799,5.438v1.396h-13.435v0.219v1.076c0,2.22,0.628,4.082,1.883,5.591c1.255,1.508,2.87,2.261,4.843,2.261
			c1.086,0,2.132-0.202,3.135-0.604c1.003-0.403,1.819-0.942,2.447-1.615l0.488,0.707c-0.639,0.706-1.464,1.285-2.472,1.739
			C273.277,417.894,272.078,418.121,270.688,418.121z M270.772,400.146c-1.883,0-3.428,0.654-4.632,1.96
			c-1.206,1.306-1.886,2.956-2.043,4.95l0.051,0.102h12.341v-0.555c0-1.872-0.51-3.416-1.53-4.632
			C273.938,400.755,272.543,400.146,270.772,400.146z"/>
		<path fill="#2B2B2B" d="M270.688,419.078c-2.417,0-4.481-0.945-6.138-2.81c-1.627-1.832-2.453-4.155-2.453-6.907v-1.076
			c0-2.857,0.817-5.255,2.426-7.122c1.646-1.912,3.748-2.881,6.249-2.881c2.291,0,4.152,0.776,5.535,2.308
			c1.358,1.504,2.046,3.55,2.046,6.081v2.352h-13.435v0.339c0,2.007,0.544,3.636,1.662,4.979c1.075,1.291,2.417,1.917,4.108,1.917
			c0.959,0,1.894-0.181,2.779-0.535c0.868-0.351,1.575-0.813,2.104-1.381l0.811-0.869l1.593,2.309l-0.508,0.563
			c-0.725,0.8-1.663,1.463-2.789,1.969C273.551,418.819,272.207,419.078,270.688,419.078z M265.169,406.201h10.354
			c-0.064-1.468-0.49-2.652-1.297-3.615c-0.836-0.998-1.966-1.482-3.454-1.482c-1.62,0-2.904,0.54-3.93,1.65
			C265.969,403.7,265.417,404.835,265.169,406.201z"/>
	</g>
	<g>
		<path fill="#2B2B2B" d="M289.183,408.654c0-2.88,0.605-5.17,1.816-6.867c1.21-1.699,2.892-2.548,5.043-2.548
			c1.413,0,2.638,0.315,3.674,0.95c1.037,0.634,1.864,1.499,2.479,2.598v-11.249h0.909v13.637c0,0.021,0,0.039,0,0.05
			s0.005,0.018,0.017,0.018v7.414c-0.011,0.022-0.017,0.039-0.017,0.051c0,0.011,0,0.022,0,0.034v5.026h-0.875l-0.034-2.807
			c-0.604,0.974-1.434,1.745-2.488,2.311c-1.054,0.565-2.287,0.85-3.7,0.85c-2.141,0-3.813-0.818-5.019-2.455
			c-1.205-1.636-1.808-3.856-1.808-6.658V408.654z M290.125,409.008c0,2.512,0.496,4.506,1.488,5.985
			c0.993,1.48,2.453,2.22,4.381,2.22c1.58,0,2.892-0.355,3.934-1.067c1.043-0.712,1.799-1.661,2.27-2.85v-8.609
			c-0.448-1.29-1.157-2.368-2.126-3.237c-0.97-0.869-2.317-1.303-4.044-1.303c-1.927,0-3.393,0.788-4.397,2.362
			c-1.003,1.576-1.505,3.623-1.505,6.146V409.008z"/>
		<path fill="#2B2B2B" d="M296.009,418.6c-2.291,0-4.109-0.892-5.404-2.649c-1.261-1.713-1.9-4.049-1.9-6.942v-0.354
			c0-2.968,0.641-5.373,1.904-7.146c1.3-1.824,3.128-2.748,5.434-2.748c1.496,0,2.815,0.343,3.924,1.021
			c0.663,0.404,1.248,0.901,1.752,1.489V391.06h1.865v27.187h-1.825l-0.023-1.911c-0.511,0.536-1.113,0.99-1.799,1.358
			C298.816,418.294,297.495,418.6,296.009,418.6z M296.026,400.625c-1.77,0-3.076,0.701-3.994,2.142
			c-0.949,1.489-1.43,3.471-1.43,5.888v0.354c0,2.402,0.474,4.328,1.407,5.72c0.906,1.351,2.208,2.008,3.983,2.008
			c1.474,0,2.707-0.332,3.665-0.984c0.932-0.638,1.625-1.494,2.061-2.549v-8.434c-0.42-1.173-1.083-2.169-1.967-2.963
			C298.876,401.021,297.624,400.625,296.026,400.625z"/>
	</g>
	<g>
		<path fill="#2B2B2B" d="M315.245,418.121c-2.141,0-3.948-0.829-5.422-2.488c-1.474-1.659-2.211-3.749-2.211-6.271v-1.076
			c0-2.634,0.731-4.801,2.195-6.498c1.462-1.699,3.304-2.548,5.523-2.548c2.018,0,3.626,0.663,4.826,1.993
			c1.199,1.328,1.799,3.14,1.799,5.438v1.396H308.52v0.219v1.076c0,2.22,0.628,4.082,1.883,5.591
			c1.256,1.508,2.87,2.261,4.843,2.261c1.087,0,2.133-0.202,3.135-0.604c1.003-0.403,1.82-0.942,2.447-1.615l0.487,0.707
			c-0.638,0.706-1.463,1.285-2.471,1.739C317.834,417.894,316.635,418.121,315.245,418.121z M315.329,400.146
			c-1.883,0-3.427,0.654-4.632,1.96s-1.886,2.956-2.042,4.95l0.05,0.102h12.341v-0.555c0-1.872-0.51-3.416-1.53-4.632
			C318.496,400.755,317.101,400.146,315.329,400.146z"/>
		<path fill="#2B2B2B" d="M315.245,418.6c-2.274,0-4.218-0.892-5.78-2.649c-1.547-1.742-2.332-3.958-2.332-6.589v-1.076
			c0-2.738,0.777-5.032,2.31-6.811c1.551-1.801,3.532-2.714,5.886-2.714c2.149,0,3.893,0.722,5.181,2.149
			c1.276,1.413,1.922,3.352,1.922,5.761v1.874h-13.435v0.816c0,2.095,0.597,3.872,1.773,5.284c1.17,1.406,2.634,2.09,4.475,2.09
			c1.021,0,2.016-0.192,2.958-0.57c0.933-0.375,1.699-0.88,2.276-1.497l0.405-0.435l1.04,1.507l-0.254,0.281
			c-0.68,0.752-1.564,1.374-2.629,1.854C317.973,418.356,316.697,418.6,315.245,418.6z M308.108,407.588h0.276l-0.218-0.437
			l0.011-0.133c0.027-0.349,0.071-0.69,0.13-1.022C308.205,406.504,308.138,407.034,308.108,407.588z M309.172,406.68h11.396v-0.076
			c0-1.748-0.478-3.203-1.418-4.325c-0.933-1.112-2.183-1.653-3.82-1.653c-1.759,0-3.16,0.59-4.281,1.806
			C310.008,403.559,309.378,404.986,309.172,406.68z M319.193,400.972c0.246,0.206,0.475,0.437,0.689,0.692
			c0.363,0.433,0.666,0.906,0.909,1.417c-0.259-0.572-0.589-1.083-0.992-1.529C319.608,401.339,319.407,401.146,319.193,400.972z"/>
	</g>
	<g>
		<path fill="#2B2B2B" d="M333.741,408.654c0-2.88,0.605-5.17,1.816-6.867c1.21-1.699,2.892-2.548,5.044-2.548
			c1.412,0,2.638,0.317,3.674,0.958c1.037,0.64,1.864,1.514,2.48,2.623l0.134-3.245h0.773v5.6c0,0.021,0,0.039,0,0.05
			s0.006,0.018,0.017,0.018v7.414c-0.011,0.022-0.017,0.039-0.017,0.051c0,0.011,0,0.022,0,0.034v5.128
			c0,2.309-0.607,4.094-1.824,5.355c-1.216,1.26-2.9,1.892-5.053,1.892c-0.885,0-1.807-0.093-2.766-0.277
			c-0.958-0.186-1.796-0.441-2.513-0.766l0.269-0.908c0.818,0.359,1.608,0.626,2.371,0.798c0.762,0.175,1.631,0.261,2.605,0.261
			c1.962,0,3.451-0.546,4.465-1.639c1.014-1.092,1.522-2.665,1.522-4.716v-2.876c-0.617,0.964-1.449,1.728-2.497,2.287
			c-1.048,0.56-2.273,0.841-3.675,0.841c-2.14,0-3.814-0.818-5.019-2.455c-1.205-1.636-1.808-3.856-1.808-6.658V408.654z
			 M334.665,409.008c0,2.512,0.499,4.506,1.497,5.985c0.998,1.48,2.46,2.22,4.388,2.22c1.559,0,2.858-0.35,3.901-1.05
			c1.042-0.702,1.805-1.641,2.287-2.817v-8.709c-0.448-1.268-1.157-2.333-2.127-3.195c-0.969-0.863-2.312-1.295-4.027-1.295
			c-1.928,0-3.396,0.788-4.405,2.362c-1.01,1.576-1.514,3.623-1.514,6.146V409.008z"/>
		<path fill="#2B2B2B" d="M340.785,426.072c-0.941,0-1.934-0.099-2.946-0.295c-1.028-0.198-1.945-0.478-2.728-0.833l-0.759-0.344
			l0.813-2.746l0.993,0.435c0.759,0.333,1.5,0.583,2.2,0.742c0.688,0.158,1.494,0.236,2.392,0.236c1.7,0,2.931-0.436,3.764-1.333
			c0.841-0.906,1.266-2.271,1.266-4.065v-0.444c-0.337,0.258-0.702,0.491-1.089,0.699c-1.183,0.633-2.571,0.954-4.125,0.954
			c-2.451,0-4.399-0.957-5.789-2.844c-1.324-1.797-1.994-4.229-1.994-7.227v-0.354c0-3.069,0.67-5.568,1.994-7.422
			c1.395-1.957,3.354-2.95,5.823-2.95c1.586,0,2.991,0.37,4.176,1.1c0.404,0.249,0.779,0.53,1.129,0.844l0.065-1.606h2.648v19.25
			c0,2.555-0.704,4.581-2.093,6.02C345.129,425.337,343.198,426.072,340.785,426.072z M340.584,401.104
			c-1.594,0-2.771,0.629-3.6,1.921c-0.904,1.411-1.362,3.308-1.362,5.63v0.354c0,2.306,0.448,4.14,1.333,5.452
			c0.815,1.209,1.991,1.797,3.595,1.797c1.358,0,2.491-0.3,3.368-0.888c0.839-0.564,1.451-1.293,1.863-2.219v-8.345
			c-0.394-1.043-1.001-1.933-1.807-2.648C343.19,401.457,342.05,401.104,340.584,401.104z"/>
	</g>
	<g>
		<path fill="#2B2B2B" d="M359.802,418.121c-2.141,0-3.947-0.829-5.422-2.488c-1.474-1.659-2.212-3.749-2.212-6.271v-1.076
			c0-2.634,0.732-4.801,2.196-6.498c1.461-1.699,3.303-2.548,5.521-2.548c2.02,0,3.626,0.663,4.827,1.993
			c1.197,1.328,1.798,3.14,1.798,5.438v1.396h-13.433v0.219v1.076c0,2.22,0.627,4.082,1.883,5.591
			c1.254,1.508,2.869,2.261,4.841,2.261c1.088,0,2.135-0.202,3.138-0.604c1.001-0.403,1.818-0.942,2.445-1.615l0.486,0.707
			c-0.638,0.706-1.46,1.285-2.47,1.739S361.193,418.121,359.802,418.121z M359.886,400.146c-1.882,0-3.426,0.654-4.632,1.96
			c-1.203,1.306-1.886,2.956-2.042,4.95l0.051,0.102h12.341v-0.555c0-1.872-0.509-3.416-1.53-4.632
			C363.054,400.755,361.657,400.146,359.886,400.146z"/>
		<path fill="#2B2B2B" d="M359.802,419.078c-2.416,0-4.479-0.945-6.138-2.81c-1.627-1.832-2.451-4.155-2.451-6.907v-1.076
			c0-2.857,0.816-5.255,2.426-7.122c1.646-1.912,3.747-2.881,6.247-2.881c2.292,0,4.154,0.776,5.536,2.308
			c1.357,1.504,2.046,3.55,2.046,6.081v2.352h-13.433v0.339c0,2.007,0.541,3.636,1.659,4.979c1.076,1.291,2.419,1.917,4.107,1.917
			c0.961,0,1.895-0.181,2.78-0.535c0.868-0.351,1.575-0.813,2.104-1.381l0.811-0.869l1.594,2.309l-0.509,0.563
			c-0.726,0.8-1.662,1.463-2.788,1.969C362.666,418.819,361.322,419.078,359.802,419.078z M354.284,406.201h10.354
			c-0.064-1.468-0.491-2.652-1.298-3.615c-0.836-0.998-1.966-1.482-3.455-1.482c-1.616,0-2.903,0.54-3.929,1.65
			C355.083,403.7,354.531,404.835,354.284,406.201z"/>
	</g>
	<g>
		<path fill="#2B2B2B" d="M382.047,413.313c0-0.965-0.411-1.843-1.235-2.633c-0.825-0.79-2.261-1.408-4.313-1.857
			c-2.163-0.459-3.729-1.051-4.699-1.775c-0.969-0.722-1.454-1.795-1.454-3.22c0-1.299,0.55-2.39,1.646-3.269
			c1.099-0.881,2.578-1.32,4.438-1.32c2.008,0,3.587,0.471,4.743,1.412c1.153,0.941,1.703,2.169,1.648,3.682l-0.035,0.103h-0.773
			c0-1.189-0.501-2.2-1.505-3.036c-1.003-0.835-2.361-1.253-4.078-1.253c-1.702,0-2.991,0.367-3.865,1.102
			c-0.875,0.734-1.312,1.584-1.312,2.547c0,0.952,0.37,1.767,1.109,2.438c0.739,0.673,2.207,1.26,4.404,1.766
			c2.029,0.471,3.568,1.113,4.616,1.925c1.049,0.813,1.573,1.948,1.573,3.404c0,1.424-0.585,2.579-1.75,3.465
			c-1.166,0.885-2.712,1.328-4.642,1.328c-2.118,0-3.78-0.474-4.984-1.42c-1.204-0.947-1.77-2.101-1.689-3.455l0.033-0.102h0.74
			c0.09,1.435,0.706,2.471,1.85,3.111c1.144,0.637,2.494,0.957,4.051,0.957c1.682,0,3.017-0.392,4.002-1.177
			C381.554,415.252,382.047,414.343,382.047,413.313z"/>
		<path fill="#2B2B2B" d="M376.565,419.078c-2.326,0-4.202-0.547-5.574-1.626c-1.46-1.146-2.151-2.581-2.054-4.263l0.08-0.348
			l0.217-0.655h2.329l0.055,0.899c0.07,1.112,0.503,1.854,1.361,2.334c0.994,0.555,2.203,0.837,3.586,0.837
			c1.454,0,2.6-0.326,3.407-0.969c0.753-0.6,1.119-1.245,1.119-1.975c0-0.699-0.308-1.335-0.943-1.942
			c-0.688-0.662-1.987-1.206-3.854-1.613c-2.315-0.492-3.975-1.128-5.066-1.941c-1.222-0.91-1.84-2.251-1.84-3.988
			c0-1.598,0.675-2.95,2.008-4.016c1.267-1.015,2.961-1.53,5.034-1.53c2.224,0,4.021,0.548,5.348,1.626
			c1.396,1.138,2.066,2.64,1.998,4.46l-0.081,0.369l-0.219,0.653h-2.418v-0.955c0-0.898-0.38-1.65-1.161-2.301
			c-0.822-0.686-1.987-1.031-3.467-1.031c-1.463,0-2.559,0.294-3.252,0.878c-0.652,0.548-0.97,1.141-0.97,1.813
			c0,0.688,0.253,1.236,0.798,1.731c0.421,0.384,1.452,0.962,3.976,1.54c2.188,0.507,3.817,1.196,4.986,2.103
			c1.291,1,1.942,2.398,1.942,4.159c0,1.732-0.714,3.154-2.125,4.226C380.454,418.564,378.699,419.078,376.565,419.078z"/>
	</g>
	<g>
		<path fill="#2B2B2B" d="M389.917,394.666v4.909h4.472v0.924h-4.472v12.579c0,1.489,0.252,2.553,0.756,3.186
			c0.505,0.633,1.171,0.949,2.002,0.949c0.304,0,0.572-0.012,0.807-0.033c0.235-0.022,0.561-0.062,0.976-0.118l0.167,0.823
			c-0.28,0.09-0.57,0.153-0.874,0.187c-0.302,0.034-0.645,0.05-1.025,0.05c-1.222,0-2.149-0.397-2.782-1.193
			s-0.951-2.079-0.951-3.85v-12.579h-3.361v-0.924h3.361v-4.909H389.917z"/>
		<path fill="#2B2B2B" d="M392.725,419.078c-1.521,0-2.71-0.523-3.53-1.556c-0.779-0.979-1.158-2.435-1.158-4.444v-11.622h-3.365
			v-2.837h3.365v-4.91h2.837v4.91h4.473v2.837h-4.473v11.622c0,1.57,0.299,2.275,0.548,2.589c0.325,0.407,0.712,0.59,1.254,0.59
			c0.269,0,0.508-0.01,0.717-0.029c0.227-0.021,0.539-0.059,0.937-0.114l0.887-0.119l0.519,2.541l-0.816,0.262
			c-0.34,0.108-0.698,0.185-1.062,0.226C393.522,419.058,393.146,419.078,392.725,419.078z"/>
	</g>
	<g>
		<path fill="#2B2B2B" d="M399.804,393.857h-0.908v-2.319h0.908V393.857z M399.804,417.768h-0.908v-18.192h0.908V417.768z"/>
		<path fill="#2B2B2B" d="M400.761,418.725h-2.822v-20.105h2.822V418.725z M400.761,394.815h-2.822v-4.234h2.822V394.815z"/>
	</g>
	<g>
		<path fill="#2B2B2B" d="M404.343,408.319c0-2.668,0.737-4.849,2.211-6.541c1.475-1.693,3.389-2.539,5.742-2.539
			c2.366,0,4.285,0.846,5.761,2.539c1.472,1.692,2.211,3.873,2.211,6.541v0.705c0,2.679-0.739,4.865-2.211,6.558
			c-1.476,1.692-3.385,2.539-5.726,2.539c-2.367,0-4.289-0.847-5.768-2.539c-1.481-1.692-2.221-3.879-2.221-6.558V408.319z
			 M405.25,409.024c0,2.286,0.639,4.224,1.918,5.811c1.277,1.585,2.998,2.378,5.163,2.378c2.128,0,3.833-0.796,5.111-2.388
			c1.275-1.591,1.915-3.525,1.915-5.801v-0.705c0-2.231-0.646-4.152-1.933-5.759c-1.29-1.61-2.999-2.414-5.129-2.414
			c-2.142,0-3.851,0.804-5.128,2.414c-1.279,1.606-1.918,3.527-1.918,5.759V409.024z M415.575,391.876h1.312l0.033,0.082
			l-3.884,4.389h-1.126l-0.033-0.085L415.575,391.876z"/>
		<path fill="#2B2B2B" d="M412.331,419.078c-2.645,0-4.826-0.965-6.488-2.866c-1.629-1.864-2.457-4.281-2.457-7.188v-0.705
			c0-2.894,0.824-5.306,2.447-7.169c1.656-1.903,3.83-2.868,6.463-2.868c2.642,0,4.823,0.965,6.48,2.867
			c1.624,1.864,2.446,4.276,2.446,7.17v0.705c0,2.905-0.822,5.322-2.446,7.186C417.119,418.112,414.949,419.078,412.331,419.078z
			 M412.296,401.104c-1.851,0-3.281,0.672-4.378,2.051c-1.151,1.449-1.709,3.138-1.709,5.165v0.705c0,2.081,0.558,3.785,1.705,5.21
			c1.095,1.361,2.541,2.022,4.417,2.022c1.84,0,3.268-0.664,4.364-2.03c1.148-1.43,1.706-3.132,1.706-5.202v-0.705
			c0-2.025-0.563-3.714-1.723-5.162C415.569,401.776,414.136,401.104,412.296,401.104z M413.467,397.304h-2.203l-0.456-1.136
			l0.337-0.521l3.984-4.729h2.405l0.46,1.148l-0.357,0.525L413.467,397.304z"/>
	</g>
	<g>
		<path fill="#2B2B2B" d="M425.395,399.575l0.117,3.665c0.561-1.267,1.369-2.25,2.422-2.95c1.053-0.702,2.348-1.051,3.885-1.051
			c1.983,0,3.471,0.624,4.464,1.874c0.99,1.25,1.487,3.231,1.487,5.943v10.711h-0.908v-10.744c0-2.521-0.45-4.298-1.352-5.33
			c-0.905-1.03-2.129-1.547-3.676-1.547c-1.906,0-3.362,0.556-4.37,1.665c-1.01,1.109-1.655,2.538-1.935,4.287v11.669h-0.908v-9.314
			h-0.051c0-0.213,0.004-0.429,0.01-0.647c0.004-0.219,0.02-0.439,0.041-0.664v-7.566H425.395z"/>
		<path fill="#2B2B2B" d="M438.727,418.725h-2.819v-11.701c0-2.271-0.377-3.853-1.119-4.7c-0.719-0.82-1.684-1.22-2.954-1.22
			c-1.639,0-2.838,0.441-3.663,1.352c-0.863,0.948-1.431,2.2-1.686,3.722v12.548h-2.821v-9.314l-0.051-0.957
			c0-0.221,0.004-0.445,0.01-0.671c0.006-0.243,0.021-0.487,0.045-0.736l-0.004-8.427h2.657l0.055,1.702
			c0.315-0.307,0.659-0.583,1.027-0.829c1.21-0.802,2.692-1.21,4.415-1.21c2.28,0,4.034,0.753,5.212,2.236
			c1.141,1.438,1.696,3.576,1.696,6.538V418.725z"/>
	</g>
	<g>
		<path fill="#2B2B2B" d="M465.614,409.008c0,2.802-0.606,5.022-1.816,6.658c-1.212,1.637-2.882,2.455-5.01,2.455
			c-1.413,0-2.644-0.281-3.69-0.841c-1.051-0.56-1.876-1.323-2.482-2.287v9.77h-0.906v-11.972c-0.012-0.033-0.02-0.062-0.025-0.084
			c-0.006-0.023-0.01-0.045-0.01-0.067v-7.397c0-0.012,0-0.021,0-0.026c0-0.005,0.012-0.041,0.035-0.108v-5.532h0.706l0.185,3.212
			c0.606-1.099,1.428-1.964,2.471-2.598c1.043-0.635,2.27-0.95,3.683-0.95c2.142,0,3.821,0.849,5.037,2.548
			c1.216,1.697,1.824,3.987,1.824,6.867V409.008z M464.688,408.654c0-2.522-0.507-4.569-1.521-6.146
			c-1.014-1.574-2.479-2.362-4.396-2.362c-1.726,0-3.074,0.432-4.043,1.295c-0.971,0.862-1.674,1.928-2.112,3.195v8.691
			c0.462,1.189,1.212,2.133,2.254,2.835c1.043,0.7,2.354,1.05,3.935,1.05c1.917,0,3.377-0.739,4.381-2.22
			c1.003-1.479,1.504-3.474,1.504-5.985V408.654z"/>
		<path fill="#2B2B2B" d="M453.095,425.241h-1.865l-0.012-12.419c-0.014-0.06-0.021-0.12-0.021-0.183v-7.397
			c0-0.086,0.012-0.139,0.033-0.211v-5.934h1.638l0.13,2.257c0.517-0.622,1.128-1.15,1.826-1.574c1.112-0.677,2.435-1.02,3.93-1.02
			c2.295,0,4.119,0.923,5.425,2.747c1.271,1.772,1.914,4.178,1.914,7.146v0.354c0,2.894-0.642,5.23-1.908,6.942
			c-1.302,1.758-3.116,2.649-5.396,2.649c-1.487,0-2.804-0.302-3.917-0.898c-0.676-0.36-1.27-0.805-1.776-1.326V425.241z
			 M453.095,413.238c0.425,1.051,1.11,1.9,2.042,2.528c0.957,0.643,2.189,0.969,3.667,0.969c1.765,0,3.067-0.658,3.985-2.01
			c0.943-1.394,1.422-3.316,1.422-5.718v-0.354c0-2.416-0.486-4.397-1.445-5.886c-0.93-1.442-2.236-2.144-3.995-2.144
			c-1.597,0-2.851,0.395-3.726,1.174c-0.885,0.787-1.541,1.769-1.95,2.919V413.238z"/>
	</g>
	<g>
		<path fill="#2B2B2B" d="M481.974,414.406c-0.627,1.097-1.563,1.992-2.808,2.681c-1.243,0.689-2.751,1.034-4.521,1.034
			c-1.694,0-3.021-0.463-3.985-1.387c-0.965-0.925-1.446-2.173-1.446-3.741c0-1.525,0.72-2.803,2.158-3.834
			c1.442-1.031,3.244-1.547,5.408-1.547h5.194v-2.656c0-1.514-0.484-2.692-1.453-3.54c-0.971-0.847-2.335-1.27-4.096-1.27
			c-1.647,0-2.972,0.397-3.976,1.193c-1.004,0.797-1.506,1.822-1.506,3.077l-0.756-0.033l-0.035-0.085
			c-0.066-1.412,0.483-2.608,1.65-3.589c1.163-0.981,2.707-1.471,4.622-1.471c1.952,0,3.515,0.493,4.692,1.479
			c1.176,0.986,1.765,2.41,1.765,4.271v9.112c0,0.639,0.037,1.261,0.109,1.867c0.072,0.605,0.192,1.204,0.362,1.798h-1.01
			c-0.146-0.796-0.243-1.392-0.294-1.791c-0.051-0.397-0.076-0.826-0.076-1.286V414.406z M474.645,417.229
			c1.804,0,3.331-0.396,4.58-1.193c1.249-0.796,2.167-1.934,2.749-3.412v-4.087h-5.144c-1.885,0-3.473,0.435-4.769,1.303
			c-1.293,0.869-1.94,1.942-1.94,3.221c0,1.221,0.411,2.223,1.234,3.001C472.179,416.842,473.275,417.229,474.645,417.229z"/>
		<path fill="#2B2B2B" d="M474.645,418.6c-1.815,0-3.268-0.513-4.316-1.521c-1.059-1.013-1.595-2.389-1.595-4.085
			c0-1.682,0.795-3.103,2.36-4.222c1.518-1.087,3.43-1.638,5.686-1.638h4.718v-2.178c0-1.382-0.423-2.421-1.292-3.178
			c-0.875-0.767-2.146-1.153-3.78-1.153c-1.53,0-2.767,0.367-3.679,1.091c-0.892,0.707-1.324,1.59-1.324,2.701v0.5l-1.563-0.069
			l-0.182-0.525c-0.074-1.562,0.536-2.9,1.815-3.978c1.25-1.052,2.91-1.584,4.933-1.584c2.057,0,3.739,0.534,5,1.592
			c1.283,1.075,1.935,2.637,1.935,4.638v9.112c0,0.615,0.037,1.226,0.107,1.811c0.07,0.576,0.185,1.157,0.347,1.726l0.172,0.607
			h-2.041l-0.072-0.393c-0.146-0.808-0.245-1.412-0.297-1.816c-0.01-0.073-0.018-0.149-0.025-0.226
			c-0.583,0.656-1.304,1.223-2.152,1.693C478.088,418.232,476.487,418.6,474.645,418.6z M470.322,415.557
			c0.181,0.304,0.405,0.581,0.668,0.832c0.199,0.192,0.418,0.362,0.654,0.51c-0.219-0.144-0.424-0.308-0.617-0.489
			C470.753,416.147,470.517,415.864,470.322,415.557z M476.83,409.016c-1.779,0-3.293,0.41-4.502,1.222
			c-1.162,0.78-1.729,1.705-1.729,2.823c0,1.094,0.354,1.961,1.085,2.653c0.738,0.698,1.707,1.038,2.961,1.038
			c1.702,0,3.158-0.376,4.322-1.119c1.137-0.722,1.984-1.766,2.53-3.102v-3.516H476.83z"/>
	</g>
	<g>
		<path fill="#2B2B2B" d="M496.754,400.23l-1.177-0.101c-1.626,0-2.945,0.524-3.96,1.572s-1.674,2.43-1.976,4.146v11.92h-0.907
			v-18.192h0.739l0.168,3.161v0.621c0.505-1.298,1.255-2.312,2.253-3.033c0.997-0.725,2.225-1.085,3.683-1.085
			c0.257,0,0.494,0.02,0.715,0.058c0.218,0.041,0.405,0.084,0.563,0.127L496.754,400.23z"/>
		<path fill="#2B2B2B" d="M490.121,418.246h-1.866v-19.148h1.671l0.131,2.442c0.437-0.633,0.955-1.168,1.557-1.604
			c1.077-0.779,2.41-1.175,3.964-1.175c0.284,0,0.553,0.022,0.798,0.067c0.236,0.043,0.44,0.088,0.61,0.136l0.394,0.112l-0.206,1.67
			l-1.637-0.14c-1.464,0.002-2.646,0.47-3.575,1.428c-0.941,0.974-1.563,2.284-1.848,3.896L490.121,418.246z"/>
	</g>
	<g>
		<path fill="#2B2B2B" d="M511.668,414.406c-0.628,1.097-1.565,1.992-2.808,2.681c-1.245,0.689-2.751,1.034-4.523,1.034
			c-1.692,0-3.02-0.463-3.984-1.387c-0.964-0.925-1.445-2.173-1.445-3.741c0-1.525,0.718-2.803,2.16-3.834
			c1.44-1.031,3.242-1.547,5.405-1.547h5.195v-2.656c0-1.514-0.485-2.692-1.456-3.54c-0.968-0.847-2.334-1.27-4.091-1.27
			c-1.649,0-2.975,0.397-3.979,1.193c-1.002,0.797-1.503,1.822-1.503,3.077l-0.758-0.033l-0.033-0.085
			c-0.068-1.412,0.481-2.608,1.646-3.589c1.168-0.981,2.709-1.471,4.627-1.471c1.947,0,3.513,0.493,4.689,1.479
			s1.766,2.41,1.766,4.271v9.112c0,0.639,0.037,1.261,0.109,1.867c0.072,0.605,0.192,1.204,0.362,1.798h-1.01
			c-0.146-0.796-0.243-1.392-0.294-1.791c-0.051-0.397-0.076-0.826-0.076-1.286V414.406z M504.337,417.229
			c1.806,0,3.332-0.396,4.582-1.193c1.25-0.796,2.166-1.934,2.749-3.412v-4.087h-5.146c-1.882,0-3.471,0.435-4.766,1.303
			c-1.294,0.869-1.943,1.942-1.943,3.221c0,1.221,0.413,2.223,1.237,3.001C501.875,416.842,502.969,417.229,504.337,417.229z"/>
		<path fill="#2B2B2B" d="M504.337,418.6c-1.812,0-3.266-0.513-4.315-1.521c-1.056-1.013-1.594-2.389-1.594-4.085
			c0-1.682,0.793-3.103,2.359-4.222c1.519-1.087,3.43-1.638,5.686-1.638h4.718v-2.178c0-1.382-0.423-2.421-1.292-3.178
			c-0.875-0.767-2.147-1.153-3.777-1.153c-1.53,0-2.771,0.367-3.68,1.091c-0.893,0.707-1.325,1.59-1.325,2.701v0.5l-1.564-0.069
			l-0.181-0.525c-0.076-1.562,0.537-2.9,1.815-3.978c1.249-1.052,2.909-1.584,4.935-1.584c2.055,0,3.736,0.534,4.997,1.592
			c1.284,1.075,1.936,2.637,1.936,4.638v9.112c0,0.615,0.037,1.226,0.107,1.811c0.069,0.576,0.185,1.157,0.346,1.726l0.172,0.607
			h-2.04l-0.072-0.393c-0.148-0.808-0.245-1.412-0.298-1.816c-0.008-0.073-0.016-0.149-0.025-0.226
			c-0.585,0.656-1.304,1.223-2.151,1.693C507.782,418.232,506.181,418.6,504.337,418.6z M500.016,415.557
			c0.183,0.304,0.405,0.581,0.666,0.832c0.201,0.192,0.421,0.362,0.659,0.51c-0.223-0.144-0.427-0.308-0.62-0.489
			C500.444,416.147,500.21,415.864,500.016,415.557z M506.521,409.016c-1.774,0-3.291,0.41-4.499,1.222
			c-1.165,0.78-1.73,1.705-1.73,2.823c0,1.094,0.354,1.961,1.088,2.653c0.736,0.698,1.704,1.038,2.957,1.038
			c1.704,0,3.159-0.376,4.324-1.119c1.134-0.722,1.985-1.766,2.529-3.102v-3.516H506.521z"/>
	</g>
	<g>
		<path fill="#2B2B2B" d="M528.55,394.666v4.909h4.473v0.924h-4.473v12.579c0,1.489,0.251,2.553,0.756,3.186
			s1.172,0.949,2.001,0.949c0.303,0,0.571-0.012,0.807-0.033c0.236-0.022,0.562-0.062,0.975-0.118l0.17,0.823
			c-0.28,0.09-0.573,0.153-0.875,0.187c-0.302,0.034-0.644,0.05-1.025,0.05c-1.223,0-2.148-0.397-2.782-1.193
			s-0.951-2.079-0.951-3.85v-12.579h-3.363v-0.924h3.363v-4.909H528.55z"/>
		<path fill="#2B2B2B" d="M531.357,418.6c-1.369,0-2.432-0.463-3.158-1.374c-0.709-0.891-1.054-2.249-1.054-4.147v-12.101h-3.362
			v-1.88h3.362v-4.91h1.882v4.91h4.474v1.88h-4.474v12.101c0,1.372,0.221,2.344,0.653,2.887c0.413,0.518,0.945,0.771,1.626,0.771
			c0.287,0,0.54-0.011,0.763-0.031c0.229-0.021,0.549-0.061,0.955-0.116l0.444-0.06l0.345,1.683l-0.409,0.13
			c-0.311,0.1-0.636,0.168-0.969,0.205C532.117,418.583,531.757,418.6,531.357,418.6z M528.503,415.826
			c0.121,0.314,0.27,0.583,0.446,0.804c0.26,0.323,0.569,0.568,0.943,0.735c-0.362-0.187-0.682-0.457-0.961-0.804
			C528.765,416.352,528.622,416.106,528.503,415.826z"/>
	</g>
	<g>
		<path fill="#2B2B2B" d="M549.501,414.573c-0.573,1.121-1.385,1.993-2.439,2.615c-1.055,0.621-2.33,0.933-3.833,0.933
			c-1.873,0-3.338-0.664-4.398-1.991c-1.058-1.329-1.587-3.389-1.587-6.182v-10.373h0.907v10.407c0,2.468,0.454,4.288,1.362,5.467
			c0.908,1.176,2.135,1.764,3.681,1.764c1.852,0,3.283-0.45,4.299-1.353c1.014-0.903,1.671-2.095,1.976-3.574v-12.711h0.924v10.71
			h0.033c0,0.146-0.006,0.286-0.016,0.421c-0.014,0.135-0.018,0.292-0.018,0.472v6.59h-0.757L549.501,414.573z"/>
		<path fill="#2B2B2B" d="M543.229,418.6c-2.015,0-3.622-0.73-4.771-2.173c-1.124-1.408-1.694-3.588-1.694-6.479v-10.851h1.864
			v10.885c0,2.348,0.425,4.087,1.263,5.174c0.82,1.062,1.901,1.579,3.303,1.579c1.723,0,3.059-0.415,3.979-1.234
			c0.922-0.818,1.53-1.916,1.815-3.264v-13.14h1.881l0.033,11.188c0,0.159-0.006,0.313-0.018,0.46
			c-0.01,0.123-0.016,0.268-0.016,0.433v7.068h-1.694l-0.092-2.165c-0.499,0.605-1.092,1.112-1.778,1.519
			C546.181,418.264,544.811,418.6,543.229,418.6z M539.241,415.878c0.152,0.185,0.313,0.356,0.479,0.511
			C539.556,416.233,539.394,416.062,539.241,415.878z M549.902,412.734l0.01,0.277v-0.523c-0.031,0.146-0.066,0.289-0.105,0.43
			L549.902,412.734z"/>
	</g>
	<g>
		<path fill="#2B2B2B" d="M565.171,399.575l0.117,3.665c0.562-1.267,1.367-2.25,2.422-2.95c1.055-0.702,2.348-1.051,3.884-1.051
			c1.984,0,3.472,0.624,4.464,1.874c0.991,1.25,1.488,3.231,1.488,5.943v10.711h-0.907v-10.744c0-2.521-0.45-4.298-1.354-5.33
			c-0.902-1.03-2.126-1.547-3.673-1.547c-1.906,0-3.363,0.556-4.371,1.665c-1.012,1.109-1.654,2.538-1.935,4.287v11.669h-0.908
			v-9.314h-0.051c0-0.213,0.002-0.429,0.01-0.647c0.004-0.219,0.018-0.439,0.041-0.664v-7.566H565.171z"/>
		<path fill="#2B2B2B" d="M578.023,418.246h-1.864v-11.223c0-2.392-0.415-4.078-1.235-5.015c-0.813-0.933-1.898-1.384-3.313-1.384
			c-1.782,0-3.097,0.493-4.019,1.508c-0.941,1.035-1.552,2.396-1.813,4.042l0.004,12.071h-1.863v-9.314l-0.051-0.479
			c0-0.217,0.002-0.438,0.008-0.659c0.006-0.232,0.02-0.464,0.043-0.701v-7.995h1.715l0.078,2.452
			c0.484-0.659,1.063-1.214,1.731-1.658c1.129-0.75,2.523-1.131,4.149-1.131c2.127,0,3.757,0.689,4.838,2.056
			c1.058,1.331,1.592,3.43,1.592,6.24V418.246z M564.875,405.284v0.528c0.059-0.32,0.129-0.63,0.209-0.929l-0.207,0.468
			L564.875,405.284z M573.791,400.058c0.713,0.287,1.333,0.727,1.854,1.321c0.063,0.07,0.123,0.146,0.182,0.223
			c-0.045-0.065-0.094-0.129-0.143-0.19C575.187,400.785,574.561,400.336,573.791,400.058z"/>
	</g>
	<g>
		<path fill="#2B2B2B" d="M589.617,418.121c-2.14,0-3.947-0.829-5.421-2.488c-1.475-1.659-2.211-3.749-2.211-6.271v-1.076
			c0-2.634,0.73-4.801,2.193-6.498c1.464-1.699,3.305-2.548,5.524-2.548c2.017,0,3.627,0.663,4.824,1.993
			c1.2,1.328,1.799,3.14,1.799,5.438v1.396h-13.433v0.219v1.076c0,2.22,0.626,4.082,1.884,5.591c1.255,1.508,2.868,2.261,4.84,2.261
			c1.09,0,2.134-0.202,3.138-0.604c1.004-0.403,1.817-0.942,2.445-1.615l0.488,0.707c-0.639,0.706-1.462,1.285-2.472,1.739
			S591.008,418.121,589.617,418.121z M589.703,400.146c-1.885,0-3.428,0.654-4.634,1.96c-1.204,1.306-1.884,2.956-2.042,4.95
			l0.051,0.102h12.342v-0.555c0-1.872-0.511-3.416-1.531-4.632C592.869,400.755,591.474,400.146,589.703,400.146z"/>
		<path fill="#2B2B2B" d="M589.617,418.6c-2.272,0-4.217-0.892-5.779-2.649c-1.547-1.742-2.332-3.958-2.332-6.589v-1.076
			c0-2.738,0.777-5.032,2.311-6.811c1.551-1.801,3.53-2.714,5.887-2.714c2.149,0,3.894,0.722,5.181,2.149
			c1.275,1.413,1.922,3.352,1.922,5.761v1.874h-13.435v0.816c0,2.095,0.597,3.872,1.772,5.284c1.171,1.406,2.634,2.09,4.474,2.09
			c1.021,0,2.017-0.192,2.96-0.57c0.932-0.375,1.697-0.88,2.273-1.497l0.405-0.435l1.041,1.507l-0.253,0.281
			c-0.683,0.752-1.567,1.374-2.631,1.854C592.348,418.356,591.068,418.6,589.617,418.6z M582.482,407.588h0.276l-0.219-0.437
			l0.01-0.133c0.027-0.349,0.072-0.69,0.131-1.022C582.577,406.504,582.511,407.034,582.482,407.588z M583.545,406.68h11.396v-0.076
			c0-1.748-0.478-3.203-1.418-4.325c-0.934-1.112-2.183-1.653-3.819-1.653c-1.762,0-3.16,0.59-4.281,1.806
			C584.379,403.559,583.75,404.986,583.545,406.68z M593.567,400.972c0.245,0.206,0.476,0.437,0.688,0.692
			c0.363,0.433,0.667,0.906,0.911,1.417c-0.26-0.572-0.591-1.083-0.993-1.529C593.982,401.339,593.78,401.146,593.567,400.972z"/>
	</g>
	<g>
		<path fill="#2B2B2B" d="M599.877,408.654c0-2.88,0.604-5.17,1.813-6.867c1.212-1.699,2.893-2.548,5.045-2.548
			c1.413,0,2.636,0.317,3.673,0.958c1.039,0.64,1.864,1.514,2.48,2.623l0.135-3.245h0.773v5.6c0,0.021,0,0.039,0,0.05
			s0.006,0.018,0.018,0.018v7.414c-0.012,0.022-0.018,0.039-0.018,0.051c0,0.011,0,0.022,0,0.034v5.128
			c0,2.309-0.608,4.094-1.824,5.355c-1.216,1.26-2.901,1.892-5.052,1.892c-0.888,0-1.81-0.093-2.768-0.277
			c-0.956-0.186-1.795-0.441-2.512-0.766l0.269-0.908c0.819,0.359,1.608,0.626,2.37,0.798c0.762,0.175,1.631,0.261,2.607,0.261
			c1.96,0,3.448-0.546,4.464-1.639c1.013-1.092,1.521-2.665,1.521-4.716v-2.876c-0.618,0.964-1.449,1.728-2.498,2.287
			c-1.048,0.56-2.271,0.841-3.673,0.841c-2.141,0-3.815-0.818-5.02-2.455c-1.204-1.636-1.806-3.856-1.806-6.658V408.654z
			 M600.801,409.008c0,2.512,0.498,4.506,1.495,5.985c0.998,1.48,2.462,2.22,4.389,2.22c1.56,0,2.858-0.35,3.901-1.05
			c1.043-0.702,1.806-1.641,2.287-2.817v-8.709c-0.448-1.268-1.158-2.333-2.128-3.195c-0.97-0.863-2.312-1.295-4.027-1.295
			c-1.927,0-3.396,0.788-4.404,2.362c-1.009,1.576-1.513,3.623-1.513,6.146V409.008z"/>
		<path fill="#2B2B2B" d="M606.921,425.595c-0.912,0-1.873-0.097-2.856-0.286c-0.992-0.191-1.873-0.461-2.62-0.8l-0.381-0.172
			l0.541-1.827l0.497,0.218c0.787,0.345,1.556,0.605,2.286,0.771c0.722,0.165,1.564,0.248,2.5,0.248
			c1.813,0,3.197-0.499,4.113-1.486c0.925-0.997,1.393-2.474,1.393-4.391v-1.505c-0.513,0.526-1.112,0.973-1.792,1.337
			c-1.113,0.597-2.426,0.898-3.899,0.898c-2.291,0-4.109-0.892-5.403-2.649c-1.263-1.713-1.901-4.049-1.901-6.942v-0.354
			c0-2.968,0.641-5.373,1.903-7.146c1.302-1.824,3.13-2.748,5.435-2.748c1.495,0,2.815,0.348,3.925,1.029
			c0.689,0.424,1.293,0.949,1.81,1.571l0.096-2.264h1.711v18.771c0,2.427-0.659,4.34-1.959,5.688
			C611.013,424.908,609.198,425.595,606.921,425.595z M606.718,400.625c-1.77,0-3.078,0.701-4.002,2.143
			c-0.953,1.489-1.438,3.47-1.438,5.887v0.354c0,2.402,0.478,4.326,1.417,5.719c0.91,1.352,2.215,2.009,3.99,2.009
			c1.454,0,2.677-0.326,3.634-0.969c0.932-0.629,1.631-1.474,2.075-2.517v-8.531c-0.421-1.149-1.081-2.133-1.966-2.92
			C609.553,401.02,608.305,400.625,606.718,400.625z"/>
	</g>
	<g>
		<path fill="#2B2B2B" d="M618.137,408.319c0-2.668,0.736-4.849,2.209-6.541c1.476-1.693,3.389-2.539,5.742-2.539
			c2.366,0,4.285,0.846,5.759,2.539c1.475,1.692,2.211,3.873,2.211,6.541v0.705c0,2.679-0.736,4.865-2.211,6.558
			c-1.474,1.692-3.381,2.539-5.726,2.539c-2.365,0-4.286-0.847-5.766-2.539s-2.219-3.879-2.219-6.558V408.319z M619.042,409.024
			c0,2.286,0.642,4.224,1.918,5.811c1.278,1.585,2.998,2.378,5.161,2.378c2.13,0,3.835-0.796,5.111-2.388
			c1.278-1.591,1.917-3.525,1.917-5.801v-0.705c0-2.231-0.643-4.152-1.933-5.759c-1.29-1.61-2.999-2.414-5.129-2.414
			c-2.142,0-3.85,0.804-5.128,2.414c-1.276,1.606-1.918,3.527-1.918,5.759V409.024z"/>
		<path fill="#2B2B2B" d="M626.121,418.6c-2.496,0-4.557-0.909-6.126-2.702c-1.551-1.775-2.338-4.088-2.338-6.873v-0.705
			c0-2.773,0.783-5.082,2.328-6.855c1.563-1.794,3.614-2.703,6.103-2.703c2.499,0,4.558,0.909,6.121,2.703
			c1.545,1.773,2.328,4.082,2.328,6.855v0.705c0,2.785-0.783,5.098-2.328,6.872C630.646,417.689,628.599,418.6,626.121,418.6z
			 M626.088,400.625c-2.005,0-3.56,0.73-4.754,2.232c-1.202,1.514-1.813,3.352-1.813,5.462v0.705c0,2.165,0.61,4.02,1.811,5.509
			c1.194,1.48,2.761,2.202,4.789,2.202c1.996,0,3.546-0.723,4.739-2.211c1.202-1.494,1.813-3.346,1.813-5.5v-0.705
			c0-2.11-0.616-3.947-1.83-5.462C629.638,401.355,628.084,400.625,626.088,400.625z M632.82,413.125
			c-0.313,0.716-0.719,1.385-1.214,2c-0.018,0.021-0.033,0.043-0.053,0.065C632.076,414.574,632.499,413.885,632.82,413.125z
			 M630.058,400.826c0.563,0.384,1.073,0.862,1.533,1.436c0.687,0.854,1.198,1.8,1.539,2.829c-0.349-1.139-0.896-2.142-1.645-2.999
			C631.049,401.589,630.573,401.167,630.058,400.826z M621.299,401.482c-0.204,0.188-0.401,0.391-0.593,0.609
			c-0.705,0.813-1.237,1.754-1.586,2.818c0.337-0.959,0.826-1.844,1.466-2.646C620.812,401.979,621.05,401.72,621.299,401.482z"/>
	</g>
	<g>
		<path fill="#2B2B2B" d="M644.584,417.213c1.535,0,2.892-0.42,4.068-1.261c1.178-0.841,1.766-2.102,1.766-3.783h0.773l0.033,0.102
			c0.046,1.781-0.606,3.202-1.958,4.262c-1.351,1.059-2.911,1.589-4.683,1.589c-2.32,0-4.139-0.834-5.456-2.506
			c-1.317-1.67-1.977-3.867-1.977-6.591v-0.705c0-2.714,0.657-4.905,1.969-6.574c1.312-1.672,3.122-2.506,5.431-2.506
			c1.883,0,3.478,0.552,4.784,1.655c1.305,1.104,1.936,2.659,1.89,4.667l-0.033,0.101h-0.773c0-1.782-0.57-3.146-1.715-4.095
			c-1.143-0.947-2.527-1.421-4.152-1.421c-2.13,0-3.745,0.762-4.842,2.287c-1.1,1.524-1.648,3.487-1.648,5.886v0.705
			c0,2.422,0.549,4.392,1.648,5.91C640.806,416.453,642.431,417.213,644.584,417.213z"/>
		<path fill="#2B2B2B" d="M644.584,418.6c-2.463,0-4.426-0.903-5.832-2.687c-1.378-1.75-2.077-4.067-2.077-6.889v-0.705
			c0-2.811,0.695-5.121,2.067-6.871c1.4-1.784,3.355-2.688,5.809-2.688c1.99,0,3.704,0.595,5.094,1.77
			c1.414,1.196,2.108,2.893,2.06,5.041l-0.059,0.242l-0.109,0.326h-1.596v-0.478c0-1.647-0.505-2.867-1.541-3.727
			c-1.053-0.869-2.346-1.311-3.849-1.311c-1.985,0-3.443,0.684-4.457,2.088c-1.032,1.435-1.556,3.321-1.556,5.606v0.705
			c0,2.307,0.523,4.202,1.556,5.63c1.014,1.4,2.483,2.081,4.49,2.081c1.427,0,2.702-0.394,3.79-1.173
			c1.054-0.751,1.566-1.862,1.566-3.394v-0.479h1.596l0.168,0.567c0.049,1.934-0.673,3.499-2.142,4.65
			C648.13,418.03,646.457,418.6,644.584,418.6z"/>
	</g>
	<g>
		<path fill="#2B2B2B" d="M657.01,393.857h-0.908v-2.319h0.908V393.857z M657.01,417.768h-0.908v-18.192h0.908V417.768z"/>
		<path fill="#2B2B2B" d="M657.488,418.246h-1.864v-19.148h1.864V418.246z M657.488,394.337h-1.864v-3.277h1.864V394.337z"/>
	</g>
	<g>
		<path fill="#2B2B2B" d="M661.55,408.319c0-2.668,0.736-4.849,2.212-6.541c1.473-1.693,3.389-2.539,5.742-2.539
			c2.363,0,4.283,0.846,5.758,2.539c1.473,1.692,2.212,3.873,2.212,6.541v0.705c0,2.679-0.739,4.865-2.212,6.558
			c-1.475,1.692-3.383,2.539-5.725,2.539c-2.365,0-4.289-0.847-5.768-2.539c-1.479-1.692-2.22-3.879-2.22-6.558V408.319z
			 M662.458,409.024c0,2.286,0.639,4.224,1.917,5.811c1.278,1.585,2.997,2.378,5.162,2.378c2.129,0,3.833-0.796,5.111-2.388
			c1.275-1.591,1.917-3.525,1.917-5.801v-0.705c0-2.231-0.646-4.152-1.935-5.759c-1.288-1.61-3-2.414-5.127-2.414
			c-2.142,0-3.851,0.804-5.129,2.414c-1.278,1.606-1.917,3.527-1.917,5.759V409.024z"/>
		<path fill="#2B2B2B" d="M669.537,418.6c-2.498,0-4.561-0.909-6.128-2.702c-1.552-1.775-2.339-4.088-2.339-6.873v-0.705
			c0-2.773,0.785-5.082,2.329-6.855c1.562-1.794,3.616-2.703,6.104-2.703c2.497,0,4.556,0.909,6.118,2.703
			c1.546,1.773,2.329,4.082,2.329,6.855v0.705c0,2.785-0.783,5.098-2.329,6.872C674.06,417.689,672.013,418.6,669.537,418.6z
			 M669.504,400.625c-2.007,0-3.563,0.73-4.755,2.232c-1.204,1.514-1.813,3.352-1.813,5.462v0.705c0,2.165,0.609,4.02,1.812,5.509
			c1.192,1.48,2.76,2.202,4.79,2.202c1.996,0,3.544-0.723,4.739-2.211c1.201-1.494,1.81-3.346,1.81-5.5v-0.705
			c0-2.11-0.616-3.947-1.829-5.462C673.052,401.355,671.498,400.625,669.504,400.625z M676.234,413.125
			c-0.314,0.716-0.72,1.385-1.215,2c-0.018,0.021-0.033,0.043-0.053,0.065C675.489,414.574,675.912,413.885,676.234,413.125z
			 M673.473,400.826c0.562,0.384,1.072,0.862,1.531,1.436c0.687,0.854,1.201,1.8,1.542,2.829c-0.349-1.139-0.898-2.142-1.646-2.999
			C674.463,401.589,673.987,401.167,673.473,400.826z M664.714,401.482c-0.204,0.188-0.402,0.391-0.592,0.609
			c-0.707,0.813-1.237,1.754-1.588,2.818c0.337-0.959,0.826-1.844,1.466-2.646C664.226,401.979,664.463,401.72,664.714,401.482z"/>
	</g>
	<g>
		<path fill="#2B2B2B" d="M683.289,417.768h-1.442v-2.186h1.442V417.768z"/>
		<path fill="#2B2B2B" d="M683.77,418.246h-2.402v-3.143h2.402V418.246z M682.323,417.29h0.489v-1.229h-0.489V417.29z"/>
	</g>
</g>
</svg>
